<?xml version="1.0" encoding="UTF-8" standalone="no"?>
<!-- Created with Inkscape (http://www.inkscape.org/) -->

<svg
   width="2048"
   height="1024"
   viewBox="0 0 541.8667 270.93333"
   version="1.1"
   id="svg1"
   inkscape:version="1.3.2 (091e20e, 2023-11-25, custom)"
   sodipodi:docname="logo.svg"
   inkscape:export-filename="logo.png"
   inkscape:export-xdpi="96"
   inkscape:export-ydpi="96"
   xmlns:inkscape="http://www.inkscape.org/namespaces/inkscape"
   xmlns:sodipodi="http://sodipodi.sourceforge.net/DTD/sodipodi-0.dtd"
   xmlns:xlink="http://www.w3.org/1999/xlink"
   xmlns="http://www.w3.org/2000/svg"
   xmlns:svg="http://www.w3.org/2000/svg">
  <sodipodi:namedview
     id="namedview1"
     pagecolor="#ffffff"
     bordercolor="#000000"
     borderopacity="0.25"
     inkscape:showpageshadow="2"
     inkscape:pageopacity="0.0"
     inkscape:pagecheckerboard="0"
     inkscape:deskcolor="#d1d1d1"
     inkscape:document-units="mm"
     inkscape:zoom="0.25"
     inkscape:cx="1400"
     inkscape:cy="126"
     inkscape:window-width="1920"
     inkscape:window-height="1009"
     inkscape:window-x="1912"
     inkscape:window-y="-8"
     inkscape:window-maximized="1"
     inkscape:current-layer="layer1" />
  <defs
     id="defs1">
    <linearGradient
       id="linearGradient11"
       inkscape:collect="always">
      <stop
         style="stop-color:#ff0000;stop-opacity:1;"
         offset="0.25960061"
         id="stop11" />
      <stop
         style="stop-color:#6100ff;stop-opacity:1;"
         offset="0.77265745"
         id="stop13" />
      <stop
         style="stop-color:#0000ff;stop-opacity:1;"
         offset="1"
         id="stop12" />
    </linearGradient>
    <inkscape:path-effect
       effect="bspline"
       id="path-effect3"
       is_visible="true"
       lpeversion="1.3"
       weight="33.333333"
       steps="2"
       helper_size="0"
       apply_no_weight="true"
       apply_with_weight="true"
       only_selected="false"
       uniform="false" />
    <inkscape:path-effect
       effect="bspline"
       id="path-effect1"
       is_visible="true"
       lpeversion="1.3"
       weight="33.9333"
       steps="2"
       helper_size="0"
       apply_no_weight="true"
       apply_with_weight="true"
       only_selected="false"
       uniform="false" />
    <inkscape:path-effect
       effect="bspline"
       id="path-effect1-4"
       is_visible="true"
       lpeversion="1.3"
       weight="33.9333"
       steps="2"
       helper_size="0"
       apply_no_weight="true"
       apply_with_weight="true"
       only_selected="false"
       uniform="false" />
    <inkscape:path-effect
       effect="bspline"
       id="path-effect3-4"
       is_visible="true"
       lpeversion="1.3"
       weight="33.333333"
       steps="2"
       helper_size="0"
       apply_no_weight="true"
       apply_with_weight="true"
       only_selected="false"
       uniform="false" />
    <linearGradient
       inkscape:collect="always"
       xlink:href="#linearGradient11"
       id="linearGradient12"
       x1="32.736202"
       y1="64.162827"
       x2="234.83681"
       y2="64.162827"
       gradientUnits="userSpaceOnUse"
       gradientTransform="matrix(1.5597093,0,0,1.5597093,165.16957,-36.6468)" />
  </defs>
  <g
     inkscape:label="Livello 1"
     inkscape:groupmode="layer"
     id="layer1">
    <rect
       style="fill:#ffffff;fill-opacity:1;stroke:#000000;stroke-width:1.17051;stroke-dasharray:none;stroke-opacity:1"
       id="rect14"
       width="270.76282"
       height="270.76282"
       x="-405.25641"
       y="66.760262"
       rx="30"
       ry="30" />
    <g
       id="g14"
       transform="matrix(1.3027977,0,0,1.3923929,0.46706172,-107.16693)"
       style="stroke:#000000;stroke-opacity:1">
      <path
         style="fill:#0000ff;fill-opacity:1;stroke:#000000;stroke-width:1;stroke-dasharray:none;stroke-opacity:1"
         d="m 191.50468,198.10612 c -32.76062,0.44032 -66.17252,0.99154 -97.681801,9.66716 -28.817284,7.79553 -54.403492,23.02881 -75.186222,41.83593 -4.234912,3.89011 -9.0152223,7.43691 -12.6478823,11.76916 -1.0877929,1.08344 0.429241,2.41012 1.701948,1.55135 9.8427493,-4.64532 17.9975043,-11.49223 26.9981803,-17.20912 24.881136,-17.08578 53.035837,-31.15337 84.106767,-37.58322 34.54055,-7.04428 79.20655,-8.63987 114.53498,-8.88914 30.08414,-1.32108 36.3911,-0.59854 1.00175,-1.57034 -12.9417,-0.56693 -29.86176,0.37269 -42.82772,0.42801 z"
         id="path4"
         sodipodi:nodetypes="cccccccccc" />
      <path
         style="fill:#ff0000;fill-opacity:1;stroke:#000000;stroke-width:1;stroke-dasharray:none;stroke-opacity:1"
         d="m 92.442643,94.097487 c -9.260417,0.501777 -16.633413,8.506443 -22.818017,16.118523 -12.913648,16.501 -22.482596,36.3324 -31.465375,56.18137 -10.958921,24.90777 -21.088959,50.39126 -29.8402053,76.56617 -1.694319,5.90307 -4.0681986,11.84651 -4.0526514,18.21306 -0.1441136,1.59694 1.3803086,2.82007 2.3350284,1.44188 3.9092883,-5.31954 6.3437403,-11.97652 9.2091433,-18.14627 13.207607,-30.45465 23.372635,-64.65999 38.689095,-93.68225 7.336305,-13.4126 14.527946,-27.67643 25.320913,-37.24803 3.94626,-3.50171 9.849174,-9.24647 14.779053,-8.92277 6.430263,0.0391 17.253773,11.10888 22.403543,15.47711 15.43913,14.67429 28.56446,32.70115 45.12028,45.67256 11.5954,9.23646 25.45262,14.93669 38.88166,19.05387 20.52043,6.60726 36.77013,9.0671 57.93337,9.72818 1.37059,-0.14361 0.98232,0.16036 -0.0405,-0.25033 -17.76478,-0.92279 -19.26559,-0.99783 -36.76966,-4.99461 -23.23909,-5.02478 -47.74747,-15.72556 -66.24989,-34.04421 C 140.00874,139.96655 127.44357,120.37416 112.12222,104.33012 106.52867,98.876484 99.886317,93.817611 92.442761,94.098164 Z"
         id="path2"
         sodipodi:nodetypes="cccccccccccccccccccc" />
    </g>
    <g
       id="g13"
       transform="matrix(1.3937165,0,0,1.3937165,137.84365,-118.95301)"
       style="stroke:#000000;stroke-opacity:1">
      <path
         style="fill:#0000ff;fill-opacity:1;stroke:#000000;stroke-width:1.16696;stroke-dasharray:none;stroke-opacity:1"
         d="m 181.13303,175.75716 c -6.61907,-0.0872 -11.17778,5.41094 -14.91815,10.13537 -0.56619,-3.12079 0.62968,-6.72238 -0.74841,-9.60065 -3.14227,-0.52515 -6.18698,1.85479 -9.17647,2.6343 -2.20379,1.35786 -5.90627,1.57335 -7.11199,4.10348 0.22363,2.34351 3.39958,0.15319 4.76578,0.82495 3.69421,0.65077 2.26531,5.53369 2.68303,8.15051 0.0466,16.80155 0.31174,33.66199 -0.42719,50.42819 -0.28095,3.60475 -4.8269,2.78433 -7.16618,3.83238 -1.41711,1.53715 1.09336,2.4717 2.36321,2.1368 7.42205,-0.0505 14.96882,0.59163 22.32459,-0.33914 1.42233,-1.00925 -0.27476,-2.86522 -1.69772,-2.29306 -2.59588,0.0361 -6.09715,-1.50571 -5.43871,-4.66263 -0.22504,-5.71436 -0.83927,-12.16775 -0.2275,-17.48762 7.76609,6.13097 19.80723,4.09687 25.95927,-3.39228 7.46485,-8.22898 8.50726,-20.47732 5.56095,-30.78989 -2.34728,-7.20536 -8.62584,-14.03908 -16.74451,-13.68071 z m -4.3735,8.58859 c 6.3153,-0.37595 10.62457,5.78429 11.58009,11.45359 1.66161,8.3664 1.94983,18.73963 -4.65839,25.10986 -4.92974,4.4207 -13.29715,2.48957 -16.21829,-3.37101 -1.82972,-6.74417 -0.90669,-13.97076 -1.42634,-20.9056 -0.0487,-2.93337 -0.91723,-6.18801 2.17898,-7.8889 2.23454,-2.3833 5.10505,-4.54758 8.54395,-4.39794 z"
         id="path8" />
      <path
         style="fill:#ffff00;fill-opacity:1;stroke:#000000;stroke-width:1.16696;stroke-dasharray:none;stroke-opacity:1"
         d="m 205.06042,197.53146 c -2.49267,0.44091 -5.76903,-0.73171 -7.91462,0.83556 -0.0798,2.61963 3.74599,2.65172 4.97412,4.57231 4.08194,4.97725 6.11769,11.42992 9.22707,17.05415 3.81703,7.91736 7.55807,15.87151 11.34135,23.80519 -2.50881,5.07388 -3.54261,11.60201 -8.24734,15.22962 -2.99407,1.35125 -6.17142,-1.49271 -9.3604,-1.08539 -3.9772,-0.43562 -6.96142,4.31272 -4.72324,7.6584 3.01039,4.99362 10.1525,3.90364 14.19843,0.87916 8.07859,-5.0996 9.77051,-15.2139 13.65632,-23.22226 5.78744,-13.55655 10.84453,-27.4888 17.18567,-40.77067 0.96452,-1.92274 4.83434,-1.65109 4.36605,-4.2183 -2.45401,-1.48229 -5.84967,-0.34423 -8.60137,-0.74215 -2.37339,0.40796 -5.47969,-0.74202 -7.51913,0.76555 -0.81924,2.52658 2.541,1.72694 3.81006,2.46632 2.42282,2.03862 -0.54784,5.45476 -0.88251,7.79528 -2.92296,7.75271 -5.77571,15.56045 -9.2858,23.07434 -4.45594,-8.9072 -9.4166,-17.7469 -12.54006,-27.24876 -1.16873,-3.0095 2.0988,-4.31494 4.50426,-4.27039 1.46009,-0.71057 0.44048,-2.84776 -1.09603,-2.43337 -4.3557,-0.25989 -8.73171,-0.10491 -13.09283,-0.14455 z"
         id="path9" />
    </g>
    <path
       style="fill:url(#linearGradient12);stroke:#000000;stroke-width:1.72153;stroke-dasharray:none;stroke-opacity:1"
       d="m 360.1818,11.484347 c -22.06095,0.134446 -44.14793,-0.111208 -66.19202,0.522861 -1.64411,0.750292 -0.70481,3.250477 1.05268,2.859259 4.53196,-0.318394 10.09249,1.629662 11.1313,6.567094 0.87082,12.933491 0.50058,25.984819 0.57244,38.963878 -0.0222,8.575455 -0.29294,17.146952 -0.52033,25.718617 -20.2184,-24.722303 -40.30295,-49.613939 -60.7054,-74.148787 -9.206,-0.04166 -18.54202,-1.169826 -27.68149,0.239722 -1.83827,0.674905 0.13351,2.730852 1.41486,2.599551 7.21674,0.705841 13.45683,5.185279 18.18046,10.452982 -0.36404,25.258992 -0.1586,50.531909 -0.93979,75.781606 -0.13726,2.71116 -0.18845,6.0823 -3.01125,7.4591 -3.0425,2.33367 -7.42232,1.44061 -10.52767,3.41251 -0.0995,1.74954 2.57848,1.34691 3.72086,1.62158 9.9783,0.36052 20.01858,0.9121 29.984,0.12852 1.31747,0.21155 3.02785,-1.3829 1.42703,-2.28429 -2.74889,-1.34159 -5.98821,-0.50668 -8.65247,-2.2417 -2.77754,-0.96682 -4.10652,-3.79295 -3.99117,-6.58713 -0.59204,-22.56009 -0.65477,-45.143316 -0.58956,-67.712755 21.84421,26.098664 42.68283,53.060387 65.40261,78.412245 0.87649,0.83252 2.52565,3.44164 3.50449,1.29174 0.94492,-29.193143 0.49611,-58.434363 1.3645,-87.635556 -0.28518,-3.017226 3.41918,-3.300365 5.37609,-4.366436 11.5874,-4.733033 24.37837,-3.609448 36.62515,-4.137525 -0.14957,28.147017 0.36836,56.34723 -0.9547,84.456667 0.22385,4.52193 -4.5947,6.94886 -8.476,7.30882 -1.6307,0.50359 -4.53048,-0.19009 -5.23908,1.76751 0.55255,2.22062 3.66337,1.24454 5.28685,1.65892 12.35571,0.2546 24.79995,0.99236 37.10957,-0.37347 1.53127,0.20254 2.13401,-1.82386 0.59582,-2.26778 -3.78925,-1.32911 -8.98981,-0.56837 -11.49435,-4.4235 -1.3861,-5.96181 -0.9274,-12.30128 -1.29517,-18.425124 -0.35653,-22.669198 -0.45997,-45.36028 0.28765,-68.020529 -0.28303,-2.035699 2.52219,-1.053433 3.6401,-1.386203 8.94691,0.199989 18.05724,-0.521898 26.866,1.167484 3.79899,0.86968 8.64771,2.557942 9.62076,6.715368 0.28098,26.027169 1.00342,52.119515 -0.62877,78.105934 -0.006,4.39927 -5.17819,5.44145 -8.52219,6.19015 -1.5637,0.68226 -4.2822,0.4486 -5.04279,2.20784 1.26717,2.09508 4.44739,0.90367 6.44182,1.38725 9.34291,0.0756 18.75448,0.65349 28.06123,-0.3059 1.50298,0.16869 2.16962,-1.76954 0.69917,-2.33553 -2.95706,-1.37398 -6.59775,-0.47708 -9.34556,-2.55702 -3.15449,-1.54637 -3.3213,-5.28114 -3.28915,-8.35001 -0.50548,-23.289322 -0.50179,-46.585984 -0.70705,-69.87915 13.65695,27.066934 24.99625,55.263391 39.14895,82.07858 0.50818,1.15959 2.15766,1.73231 2.45971,0.0633 13.52319,-26.743488 25.4078,-54.279934 38.35072,-81.305568 0.85322,13.577856 0.31524,27.213917 0.41702,40.813895 -0.25851,10.83174 0.23355,21.872755 -1.00677,32.573133 -0.84222,4.40877 -6.12601,5.19581 -9.75725,6.00948 -1.17913,0.21167 -4.23541,0.0744 -3.64008,2.06887 1.48347,1.79113 4.37104,0.63108 6.36982,1.10878 11.63625,0.13537 23.32737,0.64493 34.93657,-0.21851 1.37045,0.13196 3.82482,-1.70658 1.71799,-2.66645 -3.0826,-0.9783 -6.62261,-0.23994 -9.35166,-2.40674 -3.83326,-2.06767 -2.98348,-6.94658 -3.26455,-10.573474 -0.70273,-25.346596 -1.1825,-50.776653 0.42368,-76.084001 -0.15855,-2.544255 1.51485,-4.774092 3.87271,-5.615246 2.7305,-1.634809 6.17738,-0.878923 8.91564,-2.274735 0.76642,-1.126081 -0.30752,-2.766296 -1.72321,-2.232161 -8.91972,-0.07987 -17.92349,-0.408928 -26.79816,0.252738 -3.18094,4.099136 -4.72786,9.291937 -7.10783,13.881775 -9.51685,20.606041 -18.71895,41.375558 -28.66244,61.780035 -0.65975,1.960665 -1.45759,1.242371 -1.96292,-0.421253 C 451.7684,62.784974 440.55477,37.073482 428.24815,12.044537 405.56833,11.287756 382.87029,11.539063 360.1818,11.484319 Z"
       id="path10" />
  </g>
</svg>
