<?xml version="1.0" encoding="UTF-8" standalone="no"?>
<!-- Created with Inkscape (http://www.inkscape.org/) -->

<svg
   width="1024"
   height="1024"
   viewBox="0 0 270.93334 270.93333"
   version="1.1"
   id="svg1"
   inkscape:version="1.3.2 (091e20e, 2023-11-25, custom)"
   sodipodi:docname="logo.svg"
   inkscape:export-filename="logo.png"
   inkscape:export-xdpi="96"
   inkscape:export-ydpi="96"
   xmlns:inkscape="http://www.inkscape.org/namespaces/inkscape"
   xmlns:sodipodi="http://sodipodi.sourceforge.net/DTD/sodipodi-0.dtd"
   xmlns:xlink="http://www.w3.org/1999/xlink"
   xmlns="http://www.w3.org/2000/svg"
   xmlns:svg="http://www.w3.org/2000/svg">
  <sodipodi:namedview
     id="namedview1"
     pagecolor="#ffffff"
     bordercolor="#000000"
     borderopacity="0.25"
     inkscape:showpageshadow="2"
     inkscape:pageopacity="0.0"
     inkscape:pagecheckerboard="0"
     inkscape:deskcolor="#d1d1d1"
     inkscape:document-units="mm"
     inkscape:zoom="0.5"
     inkscape:cx="319"
     inkscape:cy="315"
     inkscape:window-width="1920"
     inkscape:window-height="1009"
     inkscape:window-x="1912"
     inkscape:window-y="-8"
     inkscape:window-maximized="1"
     inkscape:current-layer="layer1" />
  <defs
     id="defs1">
    <linearGradient
       id="linearGradient11"
       inkscape:collect="always">
      <stop
         style="stop-color:#ff0000;stop-opacity:1;"
         offset="0.25960061"
         id="stop11" />
      <stop
         style="stop-color:#6100ff;stop-opacity:1;"
         offset="0.77265745"
         id="stop13" />
      <stop
         style="stop-color:#0000ff;stop-opacity:1;"
         offset="1"
         id="stop12" />
    </linearGradient>
    <inkscape:path-effect
       effect="bspline"
       id="path-effect3"
       is_visible="true"
       lpeversion="1.3"
       weight="33.333333"
       steps="2"
       helper_size="0"
       apply_no_weight="true"
       apply_with_weight="true"
       only_selected="false"
       uniform="false" />
    <inkscape:path-effect
       effect="bspline"
       id="path-effect1"
       is_visible="true"
       lpeversion="1.3"
       weight="33.9333"
       steps="2"
       helper_size="0"
       apply_no_weight="true"
       apply_with_weight="true"
       only_selected="false"
       uniform="false" />
    <inkscape:path-effect
       effect="bspline"
       id="path-effect1-4"
       is_visible="true"
       lpeversion="1.3"
       weight="33.9333"
       steps="2"
       helper_size="0"
       apply_no_weight="true"
       apply_with_weight="true"
       only_selected="false"
       uniform="false" />
    <inkscape:path-effect
       effect="bspline"
       id="path-effect3-4"
       is_visible="true"
       lpeversion="1.3"
       weight="33.333333"
       steps="2"
       helper_size="0"
       apply_no_weight="true"
       apply_with_weight="true"
       only_selected="false"
       uniform="false" />
    <linearGradient
       inkscape:collect="always"
       xlink:href="#linearGradient11"
       id="linearGradient12"
       x1="32.736203"
       y1="64.162823"
       x2="234.8368"
       y2="64.162823"
       gradientUnits="userSpaceOnUse"
       gradientTransform="translate(-20.108333,-23.8125)" />
  </defs>
  <g
     inkscape:label="Livello 1"
     inkscape:groupmode="layer"
     id="layer1">
    <rect
       style="fill:#ffffff;fill-opacity:1;stroke:#000000;stroke-width:1.17051;stroke-dasharray:none;stroke-opacity:1"
       id="rect14"
       width="270.76282"
       height="270.76282"
       x="0.085258052"
       y="0.085258052"
       rx="30"
       ry="30" />
    <g
       id="g14"
       transform="matrix(0.99986755,0,0,1.0686297,0.017488,-18.081203)">
      <path
         style="fill:#0000ff;fill-opacity:1;stroke:#000000;stroke-width:1;stroke-dasharray:none;stroke-opacity:1"
         d="m 191.50468,198.10612 c -32.76062,0.44032 -66.17252,0.99154 -97.681801,9.66716 -28.817284,7.79553 -54.403492,23.02881 -75.186222,41.83593 -4.234912,3.89011 -9.0152223,7.43691 -12.6478823,11.76916 -1.0877929,1.08344 0.429241,2.41012 1.701948,1.55135 9.8427493,-4.64532 17.9975043,-11.49223 26.9981803,-17.20912 24.881136,-17.08578 53.035837,-31.15337 84.106767,-37.58322 34.54055,-7.04428 79.20655,-8.63987 114.53498,-8.88914 30.08414,-1.32108 36.3911,-0.59854 1.00175,-1.57034 -12.9417,-0.56693 -29.86176,0.37269 -42.82772,0.42801 z"
         id="path4"
         sodipodi:nodetypes="cccccccccc" />
      <path
         style="fill:#ff0000;fill-opacity:1;stroke:#000000;stroke-width:1;stroke-dasharray:none;stroke-opacity:1"
         d="m 92.442643,94.097487 c -9.260417,0.501777 -16.633413,8.506443 -22.818017,16.118523 -12.913648,16.501 -22.482596,36.3324 -31.465375,56.18137 -10.958921,24.90777 -21.088959,50.39126 -29.8402053,76.56617 -1.694319,5.90307 -4.0681986,11.84651 -4.0526514,18.21306 -0.1441136,1.59694 1.3803086,2.82007 2.3350284,1.44188 3.9092883,-5.31954 6.3437403,-11.97652 9.2091433,-18.14627 13.207607,-30.45465 23.372635,-64.65999 38.689095,-93.68225 7.336305,-13.4126 14.527946,-27.67643 25.320913,-37.24803 3.94626,-3.50171 9.849174,-9.24647 14.779053,-8.92277 6.430263,0.0391 17.253773,11.10888 22.403543,15.47711 15.43913,14.67429 28.56446,32.70115 45.12028,45.67256 11.5954,9.23646 25.45262,14.93669 38.88166,19.05387 20.52043,6.60726 36.77013,9.0671 57.93337,9.72818 1.37059,-0.14361 0.98232,0.16036 -0.0405,-0.25033 -17.76478,-0.92279 -19.26559,-0.99783 -36.76966,-4.99461 -23.23909,-5.02478 -47.74747,-15.72556 -66.24989,-34.04421 C 140.00874,139.96655 127.44357,120.37416 112.12222,104.33012 106.52867,98.876484 99.886317,93.817611 92.442761,94.098164 Z"
         id="path2"
         sodipodi:nodetypes="cccccccccccccccccccc" />
    </g>
    <g
       id="g13"
       transform="matrix(0.89357451,0,0,0.89357451,41.683349,-70.258485)">
      <path
         style="fill:#0000ff;fill-opacity:1;stroke:#000000;stroke-width:1.16696;stroke-dasharray:none;stroke-opacity:1"
         d="m 181.13303,175.75716 c -6.61907,-0.0872 -11.17778,5.41094 -14.91815,10.13537 -0.56619,-3.12079 0.62968,-6.72238 -0.74841,-9.60065 -3.14227,-0.52515 -6.18698,1.85479 -9.17647,2.6343 -2.20379,1.35786 -5.90627,1.57335 -7.11199,4.10348 0.22363,2.34351 3.39958,0.15319 4.76578,0.82495 3.69421,0.65077 2.26531,5.53369 2.68303,8.15051 0.0466,16.80155 0.31174,33.66199 -0.42719,50.42819 -0.28095,3.60475 -4.8269,2.78433 -7.16618,3.83238 -1.41711,1.53715 1.09336,2.4717 2.36321,2.1368 7.42205,-0.0505 14.96882,0.59163 22.32459,-0.33914 1.42233,-1.00925 -0.27476,-2.86522 -1.69772,-2.29306 -2.59588,0.0361 -6.09715,-1.50571 -5.43871,-4.66263 -0.22504,-5.71436 -0.83927,-12.16775 -0.2275,-17.48762 7.76609,6.13097 19.80723,4.09687 25.95927,-3.39228 7.46485,-8.22898 8.50726,-20.47732 5.56095,-30.78989 -2.34728,-7.20536 -8.62584,-14.03908 -16.74451,-13.68071 z m -4.3735,8.58859 c 6.3153,-0.37595 10.62457,5.78429 11.58009,11.45359 1.66161,8.3664 1.94983,18.73963 -4.65839,25.10986 -4.92974,4.4207 -13.29715,2.48957 -16.21829,-3.37101 -1.82972,-6.74417 -0.90669,-13.97076 -1.42634,-20.9056 -0.0487,-2.93337 -0.91723,-6.18801 2.17898,-7.8889 2.23454,-2.3833 5.10505,-4.54758 8.54395,-4.39794 z"
         id="path8" />
      <path
         style="fill:#ffff00;fill-opacity:1;stroke:#000000;stroke-width:1.16696;stroke-dasharray:none;stroke-opacity:1"
         d="m 205.06042,197.53146 c -2.49267,0.44091 -5.76903,-0.73171 -7.91462,0.83556 -0.0798,2.61963 3.74599,2.65172 4.97412,4.57231 4.08194,4.97725 6.11769,11.42992 9.22707,17.05415 3.81703,7.91736 7.55807,15.87151 11.34135,23.80519 -2.50881,5.07388 -3.54261,11.60201 -8.24734,15.22962 -2.99407,1.35125 -6.17142,-1.49271 -9.3604,-1.08539 -3.9772,-0.43562 -6.96142,4.31272 -4.72324,7.6584 3.01039,4.99362 10.1525,3.90364 14.19843,0.87916 8.07859,-5.0996 9.77051,-15.2139 13.65632,-23.22226 5.78744,-13.55655 10.84453,-27.4888 17.18567,-40.77067 0.96452,-1.92274 4.83434,-1.65109 4.36605,-4.2183 -2.45401,-1.48229 -5.84967,-0.34423 -8.60137,-0.74215 -2.37339,0.40796 -5.47969,-0.74202 -7.51913,0.76555 -0.81924,2.52658 2.541,1.72694 3.81006,2.46632 2.42282,2.03862 -0.54784,5.45476 -0.88251,7.79528 -2.92296,7.75271 -5.77571,15.56045 -9.2858,23.07434 -4.45594,-8.9072 -9.4166,-17.7469 -12.54006,-27.24876 -1.16873,-3.0095 2.0988,-4.31494 4.50426,-4.27039 1.46009,-0.71057 0.44048,-2.84776 -1.09603,-2.43337 -4.3557,-0.25989 -8.73171,-0.10491 -13.09283,-0.14455 z"
         id="path9" />
    </g>
    <path
       style="fill:url(#linearGradient12);stroke:#000000;stroke-width:1.10375;stroke-dasharray:none;stroke-opacity:1"
       d="m 104.92279,7.0465487 c -14.144263,0.0862 -28.305225,-0.0713 -42.438688,0.33523 -1.054113,0.481046 -0.451882,2.084027 0.674921,1.8332 2.90565,-0.204137 6.470761,1.0448503 7.136783,4.2104603 0.558319,8.292244 0.320947,16.660039 0.367017,24.981499 -0.01424,5.498111 -0.187824,10.993684 -0.333607,16.489367 C 57.366298,39.04572 44.489178,23.08657 31.408243,7.3561717 c -5.902382,-0.02671 -11.888122,-0.750028 -17.747849,0.153697 -1.178597,0.432712 0.08561,1.750872 0.907134,1.666689 4.626971,0.452547 8.627776,3.3245163 11.656301,6.7018793 -0.233393,16.194678 -0.101677,32.398285 -0.602539,48.587033 -0.08802,1.73825 -0.120814,3.89964 -1.930641,4.78236 -1.950687,1.49623 -4.75879,0.92365 -6.749762,2.18792 -0.06383,1.12171 1.653178,0.86356 2.385611,1.03967 6.397538,0.23114 12.834816,0.58479 19.224098,0.0824 0.844681,0.13563 1.941285,-0.88664 0.914927,-1.46456 -1.762441,-0.86016 -3.83931,-0.32486 -5.547489,-1.43726 -1.780813,-0.61987 -2.632882,-2.43183 -2.558917,-4.2233 -0.379581,-14.464323 -0.4198,-28.943449 -0.377989,-43.413734 14.00531,16.73303 27.365884,34.019404 41.932553,50.273654 0.561961,0.53377 1.619317,2.20659 2.246896,0.82819 0.605824,-18.717068 0.318077,-37.464931 0.87484,-56.187132 -0.182847,-1.93448 2.192182,-2.116013 3.446844,-2.799519 7.429216,-3.034561 15.630083,-2.31418 23.482039,-2.652754 -0.0959,18.046322 0.23617,36.12675 -0.6121,54.149005 0.14352,2.89922 -2.945863,4.45523 -5.434346,4.68602 -1.04551,0.32287 -2.90469,-0.12188 -3.35901,1.13323 0.35427,1.42374 2.34875,0.79793 3.38964,1.06361 7.921796,0.16323 15.900366,0.63624 23.792616,-0.23945 0.98176,0.12985 1.36821,-1.16936 0.38201,-1.45398 -2.42946,-0.85215 -5.76378,-0.36441 -7.36955,-2.83611 -0.88869,-3.82238 -0.5946,-7.88691 -0.83039,-11.8132 -0.22859,-14.534247 -0.29491,-29.082523 0.18442,-43.61103 -0.18146,-1.305179 1.61709,-0.675404 2.33383,-0.888758 5.73627,0.128222 11.57731,-0.334612 17.22501,0.748527 2.4357,0.557591 5.54443,1.640012 6.1683,4.305525 0.18015,16.687192 0.64334,33.416171 -0.40313,50.077266 -0.004,2.82057 -3.31997,3.48876 -5.46396,3.96878 -1.00256,0.43743 -2.74551,0.28762 -3.23316,1.41555 0.81244,1.34325 2.85142,0.57938 4.13014,0.88943 5.99016,0.0485 12.02434,0.41898 17.99132,-0.19613 0.96363,0.10816 1.39104,-1.13453 0.44827,-1.49741 -1.8959,-0.88092 -4.23012,-0.30588 -5.99186,-1.63942 -2.02249,-0.99145 -2.12944,-3.38598 -2.10882,-5.35357 -0.32409,-14.931864 -0.32172,-29.868404 -0.45332,-44.802704 8.75608,17.353832 16.02622,35.431854 25.10015,52.624304 0.32582,0.74347 1.38338,1.11067 1.57703,0.0406 8.67033,-17.14649 16.29009,-34.801347 24.58838,-52.1287 0.54704,8.705376 0.20212,17.44807 0.26737,26.167629 -0.16574,6.944714 0.14974,14.023631 -0.64548,20.884131 -0.53999,2.82666 -3.92767,3.33127 -6.25582,3.85295 -0.75599,0.13571 -2.71551,0.0477 -2.33382,1.32645 0.95112,1.14837 2.80247,0.40461 4.08398,0.71088 7.46053,0.0868 14.95623,0.4135 22.39941,-0.14009 0.87866,0.0846 2.45227,-1.09417 1.10148,-1.70958 -1.97639,-0.62723 -4.24605,-0.15384 -5.99577,-1.54307 -2.45767,-1.32568 -1.91284,-4.45377 -2.09305,-6.77913 -0.45055,-16.250877 -0.75815,-32.555234 0.27164,-48.780916 -0.10165,-1.631237 0.97124,-3.060886 2.48297,-3.600187 1.75065,-1.0481503 3.9606,-0.5635173 5.71622,-1.4584353 0.49139,-0.721982 -0.19717,-1.773598 -1.10483,-1.431139 -5.71883,-0.05121 -11.49156,-0.262183 -17.18151,0.162041 -2.03944,2.6281413 -3.03124,5.9574803 -4.55715,8.9002323 -6.10168,13.211462 -12.00156,26.527736 -18.37678,39.609964 -0.423,1.25708 -0.93453,0.79654 -1.25852,-0.27008 C 163.64309,39.937714 156.45353,23.452917 148.5632,7.4057317 134.02214,6.9205257 119.4694,7.0816497 104.92279,7.0465507 Z"
       id="path10" />
  </g>
</svg>
